<svg xmlns="http://www.w3.org/2000/svg" width="1200" height="900" viewBox="0 0 1200 900" role="img" aria-labelledby="title-backsliding-presbyterian desc-backsliding-presbyterian" data-slug="backsliding-presbyterian" data-glass="highball" data-ice="standard" data-foam="false" data-bubbles="true" data-rim="none">
  <title id="title-backsliding-presbyterian">退步长老会程序化示意图</title>
  <desc id="desc-backsliding-presbyterian">深色酒吧台面光影中的退步长老会，highball杯型，standard冰型与citrus装饰。</desc>
  <defs>
    <linearGradient id="bg" x1="0" y1="0" x2="1" y2="1"><stop stop-color="#0b0d0f"/><stop offset=".52" stop-color="#27201d"/><stop offset="1" stop-color="#0b0c10"/></linearGradient>
    <linearGradient id="drink" x1="0" y1="0" x2="1" y2="1"><stop stop-color="#7e302d" stop-opacity=".96"/><stop offset=".55" stop-color="#bf6a43" stop-opacity=".84"/><stop offset="1" stop-color="#1e2521" stop-opacity=".96"/></linearGradient>
    <radialGradient id="light" cx="0.16" cy="0.12" r=".78"><stop stop-color="#709eb4" stop-opacity=".62"/><stop offset="1" stop-color="#709eb4" stop-opacity="0"/></radialGradient>
    <linearGradient id="edgeLight" x1="0" y1="0" x2="1" y2="0"><stop stop-color="#f8dfb8" stop-opacity=".05"/><stop offset=".5" stop-color="#f8dfb8" stop-opacity=".65"/><stop offset="1" stop-color="#f8dfb8" stop-opacity=".05"/></linearGradient>
    <filter id="blur"><feGaussianBlur stdDeviation="23"/></filter>
    <clipPath id="liquid-clip"><path d="M455 235 L745 235 L725 710 Q600 765 475 710 Z"/></clipPath>
  </defs>
  <rect width="1200" height="900" fill="url(#bg)"/>
  <ellipse cx="165" cy="110" rx="450" ry="360" fill="url(#light)" filter="url(#blur)"/>
  <g><circle cx="139.2" cy="162.4" r="9" fill="#709eb4" opacity="0.07"/><circle cx="962.0" cy="513.1" r="35" fill="#709eb4" opacity="0.19"/><circle cx="1076.4" cy="332.5" r="18" fill="#709eb4" opacity="0.16"/><circle cx="1001.6" cy="296.8" r="32" fill="#709eb4" opacity="0.16"/><circle cx="913.6" cy="149.8" r="15" fill="#709eb4" opacity="0.19"/><circle cx="539.6" cy="538.3" r="16" fill="#709eb4" opacity="0.16"/><circle cx="1142.4" cy="296.8" r="36" fill="#709eb4" opacity="0.06"/><circle cx="931.2" cy="275.8" r="12" fill="#709eb4" opacity="0.16"/><circle cx="227.2" cy="296.8" r="30" fill="#709eb4" opacity="0.10"/><circle cx="904.8" cy="78.4" r="39" fill="#709eb4" opacity="0.15"/><circle cx="346.0" cy="118.3" r="22" fill="#709eb4" opacity="0.14"/><circle cx="570.4" cy="204.4" r="21" fill="#709eb4" opacity="0.17"/></g>
  <path d="M0 745 Q250 670 510 744 T1200 715 V900 H0 Z" fill="#08090a" opacity=".9"/>
  <path d="M80 770 Q390 730 600 760 T1120 750" fill="none" stroke="url(#edgeLight)" stroke-width="3" opacity=".6"/>
  <ellipse cx="600" cy="735" rx="315" ry="31" fill="#000" opacity=".56"/>
  <g clip-path="url(#liquid-clip)"><rect x="300" y="245" width="600" height="480" fill="url(#drink)" opacity="0.48"/><g fill="#f5e5c7" opacity=".38"><rect x="485" y="287" width="72" height="62" rx="10" transform="rotate(-12 521 318)"/><rect x="598" y="275" width="76" height="64" rx="10" transform="rotate(15 636 307)"/><rect x="550" y="360" width="78" height="60" rx="10" transform="rotate(-5 589 390)"/></g><g fill="#f7e9cc" opacity=".55"><circle cx="664" cy="288" r="3"/><circle cx="508" cy="496" r="2"/><circle cx="579" cy="490" r="4"/><circle cx="693" cy="396" r="2"/><circle cx="716" cy="427" r="3"/><circle cx="578" cy="408" r="2"/><circle cx="668" cy="368" r="6"/><circle cx="568" cy="484" r="4"/><circle cx="508" cy="292" r="5"/><circle cx="578" cy="302" r="5"/><circle cx="662" cy="461" r="3"/><circle cx="474" cy="442" r="4"/><circle cx="535" cy="391" r="3"/><circle cx="493" cy="345" r="2"/></g></g>
  <path d="M455 235 L745 235 L725 710 Q600 765 475 710 Z" fill="none" stroke="#f5d9ae" stroke-width="6" opacity=".9"/>





  <path d="M730 292 Q815 205 875 290" fill="none" stroke="#e9b64e" stroke-width="17" stroke-linecap="round"/><path d="M742 292 Q810 225 865 290" fill="none" stroke="#6f8e4f" stroke-width="4"/><circle cx="820" cy="258" r="28" fill="none" stroke="#efcc69" stroke-width="7" opacity=".78"/>
</svg>
