<svg xmlns="http://www.w3.org/2000/svg" width="1200" height="900" viewBox="0 0 1200 900" role="img" aria-labelledby="title-bee-sting desc-bee-sting" data-slug="bee-sting" data-glass="rocks" data-ice="standard" data-foam="true" data-bubbles="false" data-rim="none">
  <title id="title-bee-sting">蜂刺程序化示意图</title>
  <desc id="desc-bee-sting">深色酒吧台面光影中的蜂刺，rocks杯型，standard冰型与none装饰。</desc>
  <defs>
    <linearGradient id="bg" x1="0" y1="0" x2="1" y2="1"><stop stop-color="#0b0d0f"/><stop offset=".52" stop-color="#27201d"/><stop offset="1" stop-color="#0b0c10"/></linearGradient>
    <linearGradient id="drink" x1="0" y1="0" x2="1" y2="1"><stop stop-color="#bf6a43" stop-opacity=".96"/><stop offset=".55" stop-color="#bf6a43" stop-opacity=".84"/><stop offset="1" stop-color="#1e2521" stop-opacity=".96"/></linearGradient>
    <radialGradient id="light" cx="0.16" cy="0.12" r=".78"><stop stop-color="#c46c58" stop-opacity=".62"/><stop offset="1" stop-color="#c46c58" stop-opacity="0"/></radialGradient>
    <linearGradient id="edgeLight" x1="0" y1="0" x2="1" y2="0"><stop stop-color="#f8dfb8" stop-opacity=".05"/><stop offset=".5" stop-color="#f8dfb8" stop-opacity=".65"/><stop offset="1" stop-color="#f8dfb8" stop-opacity=".05"/></linearGradient>
    <filter id="blur"><feGaussianBlur stdDeviation="23"/></filter>
    <clipPath id="liquid-clip"><path d="M420 305 L780 305 L748 620 Q600 700 452 620 Z"/></clipPath>
  </defs>
  <rect width="1200" height="900" fill="url(#bg)"/>
  <ellipse cx="165" cy="110" rx="450" ry="360" fill="url(#light)" filter="url(#blur)"/>
  <g><circle cx="962.0" cy="515.2" r="17" fill="#c46c58" opacity="0.14"/><circle cx="398.8" cy="527.8" r="13" fill="#c46c58" opacity="0.10"/><circle cx="979.6" cy="107.8" r="14" fill="#c46c58" opacity="0.13"/><circle cx="236.0" cy="349.3" r="26" fill="#c46c58" opacity="0.16"/><circle cx="438.4" cy="296.8" r="32" fill="#c46c58" opacity="0.10"/><circle cx="913.6" cy="166.6" r="38" fill="#c46c58" opacity="0.19"/><circle cx="1089.6" cy="420.7" r="32" fill="#c46c58" opacity="0.19"/><circle cx="614.4" cy="567.7" r="21" fill="#c46c58" opacity="0.11"/><circle cx="1014.8" cy="374.5" r="26" fill="#c46c58" opacity="0.10"/><circle cx="139.2" cy="137.2" r="20" fill="#c46c58" opacity="0.12"/><circle cx="112.8" cy="494.2" r="40" fill="#c46c58" opacity="0.18"/><circle cx="799.2" cy="359.8" r="8" fill="#c46c58" opacity="0.09"/></g>
  <path d="M0 745 Q250 670 510 744 T1200 715 V900 H0 Z" fill="#08090a" opacity=".9"/>
  <path d="M80 770 Q390 730 600 760 T1120 750" fill="none" stroke="url(#edgeLight)" stroke-width="3" opacity=".6"/>
  <ellipse cx="600" cy="735" rx="315" ry="31" fill="#000" opacity=".56"/>
  <g clip-path="url(#liquid-clip)"><rect x="300" y="315" width="600" height="310" fill="url(#drink)" opacity="0.48"/><g fill="#f5e5c7" opacity=".38"><rect x="485" y="357" width="72" height="62" rx="10" transform="rotate(-12 521 388)"/><rect x="598" y="345" width="76" height="64" rx="10" transform="rotate(15 636 377)"/><rect x="550" y="430" width="78" height="60" rx="10" transform="rotate(-5 589 460)"/></g><path d="M430 323 Q600 287 770 323 Q600 385 430 323 Z" fill="#f5e8ce" opacity=".72"/><path d="M485 323 Q600 305 715 323" fill="none" stroke="#fff6df" stroke-width="8" opacity=".45"/></g>
  <path d="M420 305 L780 305 L748 620 Q600 700 452 620 Z" fill="none" stroke="#f5d9ae" stroke-width="6" opacity=".9"/>






</svg>
