<svg xmlns="http://www.w3.org/2000/svg" width="1200" height="900" viewBox="0 0 1200 900" role="img" aria-labelledby="title-cafe-martini desc-cafe-martini" data-slug="cafe-martini" data-glass="martini" data-ice="up" data-foam="false" data-bubbles="false" data-rim="none">
  <title id="title-cafe-martini">咖啡馆马天尼程序化示意图</title>
  <desc id="desc-cafe-martini">深色酒吧台面光影中的咖啡馆马天尼，martini杯型，up冰型与none装饰。</desc>
  <defs>
    <linearGradient id="bg" x1="0" y1="0" x2="1" y2="1"><stop stop-color="#0b0d0f"/><stop offset=".52" stop-color="#27201d"/><stop offset="1" stop-color="#0b0c10"/></linearGradient>
    <linearGradient id="drink" x1="0" y1="0" x2="1" y2="1"><stop stop-color="#7a4329" stop-opacity=".96"/><stop offset=".55" stop-color="#a56636" stop-opacity=".84"/><stop offset="1" stop-color="#30231b" stop-opacity=".96"/></linearGradient>
    <radialGradient id="light" cx="0.16" cy="0.12" r=".78"><stop stop-color="#c46c58" stop-opacity=".62"/><stop offset="1" stop-color="#c46c58" stop-opacity="0"/></radialGradient>
    <linearGradient id="edgeLight" x1="0" y1="0" x2="1" y2="0"><stop stop-color="#f8dfb8" stop-opacity=".05"/><stop offset=".5" stop-color="#f8dfb8" stop-opacity=".65"/><stop offset="1" stop-color="#f8dfb8" stop-opacity=".05"/></linearGradient>
    <filter id="blur"><feGaussianBlur stdDeviation="23"/></filter>
    <clipPath id="liquid-clip"><path d="M390 250 L810 250 L600 505 Z"/></clipPath>
  </defs>
  <rect width="1200" height="900" fill="url(#bg)"/>
  <ellipse cx="165" cy="110" rx="450" ry="360" fill="url(#light)" filter="url(#blur)"/>
  <g><circle cx="838.8" cy="114.1" r="25" fill="#c46c58" opacity="0.07"/><circle cx="434.0" cy="248.5" r="14" fill="#c46c58" opacity="0.09"/><circle cx="1133.6" cy="223.3" r="23" fill="#c46c58" opacity="0.07"/><circle cx="724.4" cy="336.7" r="21" fill="#c46c58" opacity="0.10"/><circle cx="1164.4" cy="460.6" r="36" fill="#c46c58" opacity="0.12"/><circle cx="781.6" cy="229.6" r="39" fill="#c46c58" opacity="0.11"/><circle cx="944.4" cy="403.9" r="21" fill="#c46c58" opacity="0.08"/><circle cx="1164.4" cy="456.4" r="9" fill="#c46c58" opacity="0.10"/><circle cx="662.8" cy="401.8" r="37" fill="#c46c58" opacity="0.11"/><circle cx="1085.2" cy="374.5" r="33" fill="#c46c58" opacity="0.09"/><circle cx="170.0" cy="399.7" r="14" fill="#c46c58" opacity="0.12"/><circle cx="984.0" cy="141.4" r="20" fill="#c46c58" opacity="0.15"/></g>
  <path d="M0 745 Q250 670 510 744 T1200 715 V900 H0 Z" fill="#08090a" opacity=".9"/>
  <path d="M80 770 Q390 730 600 760 T1120 750" fill="none" stroke="url(#edgeLight)" stroke-width="3" opacity=".6"/>
  <ellipse cx="600" cy="735" rx="315" ry="31" fill="#000" opacity=".56"/>
  <g clip-path="url(#liquid-clip)"><rect x="300" y="260" width="600" height="250" fill="url(#drink)" opacity="0.84"/></g>
  <path d="M390 250 L810 250 L600 505 Z" fill="none" stroke="#f5d9ae" stroke-width="6" opacity=".9"/>
  <path d="M600 505 L600 650 M480 665 Q600 640 720 665" fill="none" stroke="#f5d9ae" stroke-width="6" opacity=".9" stroke-linecap="round"/>





</svg>
