<svg xmlns="http://www.w3.org/2000/svg" width="1200" height="900" viewBox="0 0 1200 900" role="img" aria-labelledby="title-gin-rickey desc-gin-rickey" data-slug="gin-rickey" data-glass="highball" data-ice="standard" data-foam="false" data-bubbles="true" data-rim="none">
  <title id="title-gin-rickey">金酒瑞奇程序化示意图</title>
  <desc id="desc-gin-rickey">深色酒吧台面光影中的金酒瑞奇，highball杯型，standard冰型与citrus+mint装饰。</desc>
  <defs>
    <linearGradient id="bg" x1="0" y1="0" x2="1" y2="1"><stop stop-color="#0b0d0f"/><stop offset=".52" stop-color="#27201d"/><stop offset="1" stop-color="#0b0c10"/></linearGradient>
    <linearGradient id="drink" x1="0" y1="0" x2="1" y2="1"><stop stop-color="#edcf78" stop-opacity=".96"/><stop offset=".55" stop-color="#edcf78" stop-opacity=".84"/><stop offset="1" stop-color="#1e2521" stop-opacity=".96"/></linearGradient>
    <radialGradient id="light" cx="0.16" cy="0.12" r=".78"><stop stop-color="#c46c58" stop-opacity=".62"/><stop offset="1" stop-color="#c46c58" stop-opacity="0"/></radialGradient>
    <linearGradient id="edgeLight" x1="0" y1="0" x2="1" y2="0"><stop stop-color="#f8dfb8" stop-opacity=".05"/><stop offset=".5" stop-color="#f8dfb8" stop-opacity=".65"/><stop offset="1" stop-color="#f8dfb8" stop-opacity=".05"/></linearGradient>
    <filter id="blur"><feGaussianBlur stdDeviation="23"/></filter>
    <clipPath id="liquid-clip"><path d="M455 235 L745 235 L725 710 Q600 765 475 710 Z"/></clipPath>
  </defs>
  <rect width="1200" height="900" fill="url(#bg)"/>
  <ellipse cx="165" cy="110" rx="450" ry="360" fill="url(#light)" filter="url(#blur)"/>
  <g><circle cx="293.2" cy="265.3" r="20" fill="#c46c58" opacity="0.08"/><circle cx="1010.4" cy="338.8" r="12" fill="#c46c58" opacity="0.16"/><circle cx="227.2" cy="296.8" r="40" fill="#c46c58" opacity="0.15"/><circle cx="948.8" cy="412.3" r="36" fill="#c46c58" opacity="0.07"/><circle cx="332.8" cy="542.5" r="26" fill="#c46c58" opacity="0.09"/><circle cx="139.2" cy="164.5" r="26" fill="#c46c58" opacity="0.06"/><circle cx="1036.8" cy="569.8" r="30" fill="#c46c58" opacity="0.18"/><circle cx="1054.4" cy="154.0" r="11" fill="#c46c58" opacity="0.18"/><circle cx="671.6" cy="448.0" r="13" fill="#c46c58" opacity="0.14"/><circle cx="381.2" cy="380.8" r="12" fill="#c46c58" opacity="0.09"/><circle cx="376.8" cy="340.9" r="33" fill="#c46c58" opacity="0.11"/><circle cx="170.0" cy="374.5" r="35" fill="#c46c58" opacity="0.15"/></g>
  <path d="M0 745 Q250 670 510 744 T1200 715 V900 H0 Z" fill="#08090a" opacity=".9"/>
  <path d="M80 770 Q390 730 600 760 T1120 750" fill="none" stroke="url(#edgeLight)" stroke-width="3" opacity=".6"/>
  <ellipse cx="600" cy="735" rx="315" ry="31" fill="#000" opacity=".56"/>
  <g clip-path="url(#liquid-clip)"><rect x="300" y="245" width="600" height="480" fill="url(#drink)" opacity="0.48"/><g fill="#f5e5c7" opacity=".38"><rect x="485" y="287" width="72" height="62" rx="10" transform="rotate(-12 521 318)"/><rect x="598" y="275" width="76" height="64" rx="10" transform="rotate(15 636 307)"/><rect x="550" y="360" width="78" height="60" rx="10" transform="rotate(-5 589 390)"/></g><g fill="#f7e9cc" opacity=".55"><circle cx="532" cy="302" r="6"/><circle cx="695" cy="466" r="2"/><circle cx="488" cy="522" r="6"/><circle cx="515" cy="388" r="5"/><circle cx="692" cy="291" r="2"/><circle cx="708" cy="281" r="2"/><circle cx="696" cy="376" r="3"/><circle cx="510" cy="366" r="3"/><circle cx="609" cy="461" r="6"/><circle cx="650" cy="447" r="3"/><circle cx="543" cy="481" r="4"/><circle cx="618" cy="512" r="5"/><circle cx="542" cy="483" r="3"/><circle cx="599" cy="281" r="2"/></g></g>
  <path d="M455 235 L745 235 L725 710 Q600 765 475 710 Z" fill="none" stroke="#f5d9ae" stroke-width="6" opacity=".9"/>





  <path d="M730 292 Q815 205 875 290" fill="none" stroke="#e9b64e" stroke-width="17" stroke-linecap="round"/><path d="M742 292 Q810 225 865 290" fill="none" stroke="#6f8e4f" stroke-width="4"/><circle cx="820" cy="258" r="28" fill="none" stroke="#efcc69" stroke-width="7" opacity=".78"/><path d="M740 300 Q795 200 860 245" fill="none" stroke="#709852" stroke-width="8"/><ellipse cx="775" cy="250" rx="18" ry="37" fill="#8eb56a" transform="rotate(30 775 250)"/><ellipse cx="820" cy="228" rx="17" ry="34" fill="#6d9d58" transform="rotate(55 820 228)"/><ellipse cx="840" cy="280" rx="15" ry="31" fill="#a7c875" transform="rotate(80 840 280)"/>
</svg>
