<svg xmlns="http://www.w3.org/2000/svg" width="1200" height="900" viewBox="0 0 1200 900" role="img" aria-labelledby="title-halekulani desc-halekulani" data-slug="halekulani" data-glass="coupe" data-ice="up" data-foam="false" data-bubbles="false" data-rim="none">
  <title id="title-halekulani">哈莱库拉尼程序化示意图</title>
  <desc id="desc-halekulani">深色酒吧台面光影中的哈莱库拉尼，coupe杯型，up冰型与citrus+pineapple装饰。</desc>
  <defs>
    <linearGradient id="bg" x1="0" y1="0" x2="1" y2="1"><stop stop-color="#0b0d0f"/><stop offset=".52" stop-color="#27201d"/><stop offset="1" stop-color="#0b0c10"/></linearGradient>
    <linearGradient id="drink" x1="0" y1="0" x2="1" y2="1"><stop stop-color="#d26d5b" stop-opacity=".96"/><stop offset=".55" stop-color="#7f263b" stop-opacity=".84"/><stop offset="1" stop-color="#272036" stop-opacity=".96"/></linearGradient>
    <radialGradient id="light" cx="0.16" cy="0.12" r=".78"><stop stop-color="#709eb4" stop-opacity=".62"/><stop offset="1" stop-color="#709eb4" stop-opacity="0"/></radialGradient>
    <linearGradient id="edgeLight" x1="0" y1="0" x2="1" y2="0"><stop stop-color="#f8dfb8" stop-opacity=".05"/><stop offset=".5" stop-color="#f8dfb8" stop-opacity=".65"/><stop offset="1" stop-color="#f8dfb8" stop-opacity=".05"/></linearGradient>
    <filter id="blur"><feGaussianBlur stdDeviation="23"/></filter>
    <clipPath id="liquid-clip"><path d="M390 250 Q600 340 810 250 L760 430 Q600 520 440 430 Z"/></clipPath>
  </defs>
  <rect width="1200" height="900" fill="url(#bg)"/>
  <ellipse cx="165" cy="110" rx="450" ry="360" fill="url(#light)" filter="url(#blur)"/>
  <g><circle cx="249.2" cy="445.9" r="35" fill="#709eb4" opacity="0.19"/><circle cx="328.4" cy="508.9" r="13" fill="#709eb4" opacity="0.09"/><circle cx="979.6" cy="105.7" r="36" fill="#709eb4" opacity="0.09"/><circle cx="183.2" cy="487.9" r="20" fill="#709eb4" opacity="0.10"/><circle cx="561.6" cy="137.2" r="8" fill="#709eb4" opacity="0.13"/><circle cx="60.0" cy="84.7" r="25" fill="#709eb4" opacity="0.13"/><circle cx="583.6" cy="319.9" r="24" fill="#709eb4" opacity="0.17"/><circle cx="579.2" cy="298.9" r="21" fill="#709eb4" opacity="0.11"/><circle cx="1014.8" cy="403.9" r="21" fill="#709eb4" opacity="0.15"/><circle cx="1164.4" cy="471.1" r="14" fill="#709eb4" opacity="0.14"/><circle cx="1133.6" cy="204.4" r="17" fill="#709eb4" opacity="0.10"/><circle cx="99.6" cy="372.4" r="21" fill="#709eb4" opacity="0.13"/></g>
  <path d="M0 745 Q250 670 510 744 T1200 715 V900 H0 Z" fill="#08090a" opacity=".9"/>
  <path d="M80 770 Q390 730 600 760 T1120 750" fill="none" stroke="url(#edgeLight)" stroke-width="3" opacity=".6"/>
  <ellipse cx="600" cy="735" rx="315" ry="31" fill="#000" opacity=".56"/>
  <g clip-path="url(#liquid-clip)"><rect x="300" y="270" width="600" height="230" fill="url(#drink)" opacity="0.84"/></g>
  <path d="M390 250 Q600 340 810 250 L760 430 Q600 520 440 430 Z" fill="none" stroke="#f5d9ae" stroke-width="6" opacity=".9"/>
  <path d="M600 430 L600 650 M480 665 Q600 640 720 665" fill="none" stroke="#f5d9ae" stroke-width="6" opacity=".9" stroke-linecap="round"/>




  <path d="M730 292 Q815 205 875 290" fill="none" stroke="#e9b64e" stroke-width="17" stroke-linecap="round"/><path d="M742 292 Q810 225 865 290" fill="none" stroke="#6f8e4f" stroke-width="4"/><circle cx="820" cy="258" r="28" fill="none" stroke="#efcc69" stroke-width="7" opacity=".78"/><path d="M785 298 L760 210 M800 300 L800 195 M815 300 L845 210 M795 295 L775 225 M810 295 L835 225" stroke="#82a95d" stroke-width="9" stroke-linecap="round"/><path d="M770 300 Q800 276 830 300" fill="none" stroke="#e3b74e" stroke-width="22" stroke-linecap="round"/>
</svg>
