<svg xmlns="http://www.w3.org/2000/svg" width="1200" height="900" viewBox="0 0 1200 900" role="img" aria-labelledby="title-haymaker desc-haymaker" data-slug="haymaker" data-glass="rocks" data-ice="standard" data-foam="true" data-bubbles="false" data-rim="salt">
  <title id="title-haymaker">干草机程序化示意图</title>
  <desc id="desc-haymaker">深色酒吧台面光影中的干草机，rocks杯型，standard冰型与none装饰。</desc>
  <defs>
    <linearGradient id="bg" x1="0" y1="0" x2="1" y2="1"><stop stop-color="#0b0d0f"/><stop offset=".52" stop-color="#27201d"/><stop offset="1" stop-color="#0b0c10"/></linearGradient>
    <linearGradient id="drink" x1="0" y1="0" x2="1" y2="1"><stop stop-color="#7a4329" stop-opacity=".96"/><stop offset=".55" stop-color="#a56636" stop-opacity=".84"/><stop offset="1" stop-color="#30231b" stop-opacity=".96"/></linearGradient>
    <radialGradient id="light" cx="0.16" cy="0.12" r=".78"><stop stop-color="#c59ba9" stop-opacity=".62"/><stop offset="1" stop-color="#c59ba9" stop-opacity="0"/></radialGradient>
    <linearGradient id="edgeLight" x1="0" y1="0" x2="1" y2="0"><stop stop-color="#f8dfb8" stop-opacity=".05"/><stop offset=".5" stop-color="#f8dfb8" stop-opacity=".65"/><stop offset="1" stop-color="#f8dfb8" stop-opacity=".05"/></linearGradient>
    <filter id="blur"><feGaussianBlur stdDeviation="23"/></filter>
    <clipPath id="liquid-clip"><path d="M420 305 L780 305 L748 620 Q600 700 452 620 Z"/></clipPath>
  </defs>
  <rect width="1200" height="900" fill="url(#bg)"/>
  <ellipse cx="165" cy="110" rx="450" ry="360" fill="url(#light)" filter="url(#blur)"/>
  <g><circle cx="900.4" cy="603.4" r="34" fill="#c59ba9" opacity="0.13"/><circle cx="1072.0" cy="290.5" r="8" fill="#c59ba9" opacity="0.06"/><circle cx="658.4" cy="364.0" r="36" fill="#c59ba9" opacity="0.19"/><circle cx="931.2" cy="273.7" r="37" fill="#c59ba9" opacity="0.12"/><circle cx="187.6" cy="523.6" r="39" fill="#c59ba9" opacity="0.15"/><circle cx="645.2" cy="265.3" r="25" fill="#c59ba9" opacity="0.08"/><circle cx="1032.4" cy="515.2" r="38" fill="#c59ba9" opacity="0.14"/><circle cx="341.6" cy="86.8" r="15" fill="#c59ba9" opacity="0.18"/><circle cx="689.2" cy="595.0" r="38" fill="#c59ba9" opacity="0.18"/><circle cx="790.4" cy="301.0" r="35" fill="#c59ba9" opacity="0.11"/><circle cx="1076.4" cy="315.7" r="35" fill="#c59ba9" opacity="0.17"/><circle cx="478.0" cy="592.9" r="23" fill="#c59ba9" opacity="0.17"/></g>
  <path d="M0 745 Q250 670 510 744 T1200 715 V900 H0 Z" fill="#08090a" opacity=".9"/>
  <path d="M80 770 Q390 730 600 760 T1120 750" fill="none" stroke="url(#edgeLight)" stroke-width="3" opacity=".6"/>
  <ellipse cx="600" cy="735" rx="315" ry="31" fill="#000" opacity=".56"/>
  <g clip-path="url(#liquid-clip)"><rect x="300" y="315" width="600" height="310" fill="url(#drink)" opacity="0.84"/><g fill="#f5e5c7" opacity=".38"><rect x="485" y="357" width="72" height="62" rx="10" transform="rotate(-12 521 388)"/><rect x="598" y="345" width="76" height="64" rx="10" transform="rotate(15 636 377)"/><rect x="550" y="430" width="78" height="60" rx="10" transform="rotate(-5 589 460)"/></g><path d="M430 323 Q600 287 770 323 Q600 385 430 323 Z" fill="#f5e8ce" opacity=".72"/><path d="M485 323 Q600 305 715 323" fill="none" stroke="#fff6df" stroke-width="8" opacity=".45"/></g>
  <path d="M420 305 L780 305 L748 620 Q600 700 452 620 Z" fill="none" stroke="#f5d9ae" stroke-width="6" opacity=".9"/>




  <path d="M420 305 Q600 330 780 305" fill="none" stroke="#e9d48b" stroke-width="11" stroke-linecap="round" stroke-dasharray="2 8" opacity=".9"/>

</svg>
