<svg xmlns="http://www.w3.org/2000/svg" width="1200" height="900" viewBox="0 0 1200 900" role="img" aria-labelledby="title-la-louisiane desc-la-louisiane" data-slug="la-louisiane" data-glass="martini" data-ice="up" data-foam="false" data-bubbles="false" data-rim="none">
  <title id="title-la-louisiane">路易斯安那程序化示意图</title>
  <desc id="desc-la-louisiane">深色酒吧台面光影中的路易斯安那，martini杯型，up冰型与cherry装饰。</desc>
  <defs>
    <linearGradient id="bg" x1="0" y1="0" x2="1" y2="1"><stop stop-color="#0b0d0f"/><stop offset=".52" stop-color="#27201d"/><stop offset="1" stop-color="#0b0c10"/></linearGradient>
    <linearGradient id="drink" x1="0" y1="0" x2="1" y2="1"><stop stop-color="#bf6a43" stop-opacity=".96"/><stop offset=".55" stop-color="#bf6a43" stop-opacity=".84"/><stop offset="1" stop-color="#24191b" stop-opacity=".96"/></linearGradient>
    <radialGradient id="light" cx="0.16" cy="0.12" r=".78"><stop stop-color="#c59ba9" stop-opacity=".62"/><stop offset="1" stop-color="#c59ba9" stop-opacity="0"/></radialGradient>
    <linearGradient id="edgeLight" x1="0" y1="0" x2="1" y2="0"><stop stop-color="#f8dfb8" stop-opacity=".05"/><stop offset=".5" stop-color="#f8dfb8" stop-opacity=".65"/><stop offset="1" stop-color="#f8dfb8" stop-opacity=".05"/></linearGradient>
    <filter id="blur"><feGaussianBlur stdDeviation="23"/></filter>
    <clipPath id="liquid-clip"><path d="M390 250 L810 250 L600 505 Z"/></clipPath>
  </defs>
  <rect width="1200" height="900" fill="url(#bg)"/>
  <ellipse cx="165" cy="110" rx="450" ry="360" fill="url(#light)" filter="url(#blur)"/>
  <g><circle cx="1142.4" cy="271.6" r="23" fill="#c59ba9" opacity="0.11"/><circle cx="126.0" cy="580.3" r="39" fill="#c59ba9" opacity="0.08"/><circle cx="794.8" cy="309.4" r="8" fill="#c59ba9" opacity="0.13"/><circle cx="209.6" cy="143.5" r="33" fill="#c59ba9" opacity="0.14"/><circle cx="319.6" cy="469.0" r="8" fill="#c59ba9" opacity="0.17"/><circle cx="1107.2" cy="563.5" r="26" fill="#c59ba9" opacity="0.15"/><circle cx="887.2" cy="500.5" r="13" fill="#c59ba9" opacity="0.07"/><circle cx="979.6" cy="130.9" r="14" fill="#c59ba9" opacity="0.13"/><circle cx="984.0" cy="143.5" r="24" fill="#c59ba9" opacity="0.07"/><circle cx="280.0" cy="160.3" r="24" fill="#c59ba9" opacity="0.17"/><circle cx="878.4" cy="416.5" r="35" fill="#c59ba9" opacity="0.14"/><circle cx="478.0" cy="586.6" r="10" fill="#c59ba9" opacity="0.16"/></g>
  <path d="M0 745 Q250 670 510 744 T1200 715 V900 H0 Z" fill="#08090a" opacity=".9"/>
  <path d="M80 770 Q390 730 600 760 T1120 750" fill="none" stroke="url(#edgeLight)" stroke-width="3" opacity=".6"/>
  <ellipse cx="600" cy="735" rx="315" ry="31" fill="#000" opacity=".56"/>
  <g clip-path="url(#liquid-clip)"><rect x="300" y="260" width="600" height="250" fill="url(#drink)" opacity="0.84"/></g>
  <path d="M390 250 L810 250 L600 505 Z" fill="none" stroke="#f5d9ae" stroke-width="6" opacity=".9"/>
  <path d="M600 505 L600 650 M480 665 Q600 640 720 665" fill="none" stroke="#f5d9ae" stroke-width="6" opacity=".9" stroke-linecap="round"/>




  <circle cx="784" cy="258" r="25" fill="#a94348"/><circle cx="830" cy="270" r="22" fill="#c65353"/><path d="M784 242 Q780 175 830 168 M830 250 Q825 204 850 185" fill="none" stroke="#729152" stroke-width="6"/>
</svg>
