<svg xmlns="http://www.w3.org/2000/svg" width="1200" height="900" viewBox="0 0 1200 900" role="img" aria-labelledby="title-lantern-fly desc-lantern-fly" data-slug="lantern-fly" data-glass="coupe" data-ice="up" data-foam="false" data-bubbles="false" data-rim="none">
  <title id="title-lantern-fly">灯笼蜡蝉程序化示意图</title>
  <desc id="desc-lantern-fly">深色酒吧台面光影中的灯笼蜡蝉，coupe杯型，up冰型与none装饰。</desc>
  <defs>
    <linearGradient id="bg" x1="0" y1="0" x2="1" y2="1"><stop stop-color="#0b0d0f"/><stop offset=".52" stop-color="#27201d"/><stop offset="1" stop-color="#0b0c10"/></linearGradient>
    <linearGradient id="drink" x1="0" y1="0" x2="1" y2="1"><stop stop-color="#edcf78" stop-opacity=".96"/><stop offset=".55" stop-color="#edcf78" stop-opacity=".84"/><stop offset="1" stop-color="#30231b" stop-opacity=".96"/></linearGradient>
    <radialGradient id="light" cx="0.16" cy="0.12" r=".78"><stop stop-color="#d79754" stop-opacity=".62"/><stop offset="1" stop-color="#d79754" stop-opacity="0"/></radialGradient>
    <linearGradient id="edgeLight" x1="0" y1="0" x2="1" y2="0"><stop stop-color="#f8dfb8" stop-opacity=".05"/><stop offset=".5" stop-color="#f8dfb8" stop-opacity=".65"/><stop offset="1" stop-color="#f8dfb8" stop-opacity=".05"/></linearGradient>
    <filter id="blur"><feGaussianBlur stdDeviation="23"/></filter>
    <clipPath id="liquid-clip"><path d="M390 250 Q600 340 810 250 L760 430 Q600 520 440 430 Z"/></clipPath>
  </defs>
  <rect width="1200" height="900" fill="url(#bg)"/>
  <ellipse cx="165" cy="110" rx="450" ry="360" fill="url(#light)" filter="url(#blur)"/>
  <g><circle cx="918.0" cy="196.0" r="40" fill="#d79754" opacity="0.13"/><circle cx="948.8" cy="437.5" r="9" fill="#d79754" opacity="0.09"/><circle cx="1111.6" cy="576.1" r="24" fill="#d79754" opacity="0.14"/><circle cx="130.4" cy="86.8" r="34" fill="#d79754" opacity="0.19"/><circle cx="623.2" cy="97.3" r="17" fill="#d79754" opacity="0.07"/><circle cx="997.2" cy="248.5" r="25" fill="#d79754" opacity="0.09"/><circle cx="434.0" cy="252.7" r="31" fill="#d79754" opacity="0.06"/><circle cx="610.0" cy="511.0" r="9" fill="#d79754" opacity="0.16"/><circle cx="214.0" cy="179.2" r="11" fill="#d79754" opacity="0.16"/><circle cx="372.4" cy="326.2" r="32" fill="#d79754" opacity="0.07"/><circle cx="764.0" cy="72.1" r="26" fill="#d79754" opacity="0.19"/><circle cx="139.2" cy="156.1" r="21" fill="#d79754" opacity="0.06"/></g>
  <path d="M0 745 Q250 670 510 744 T1200 715 V900 H0 Z" fill="#08090a" opacity=".9"/>
  <path d="M80 770 Q390 730 600 760 T1120 750" fill="none" stroke="url(#edgeLight)" stroke-width="3" opacity=".6"/>
  <ellipse cx="600" cy="735" rx="315" ry="31" fill="#000" opacity=".56"/>
  <g clip-path="url(#liquid-clip)"><rect x="300" y="270" width="600" height="230" fill="url(#drink)" opacity="0.48"/></g>
  <path d="M390 250 Q600 340 810 250 L760 430 Q600 520 440 430 Z" fill="none" stroke="#f5d9ae" stroke-width="6" opacity=".9"/>
  <path d="M600 430 L600 650 M480 665 Q600 640 720 665" fill="none" stroke="#f5d9ae" stroke-width="6" opacity=".9" stroke-linecap="round"/>





</svg>
