<svg xmlns="http://www.w3.org/2000/svg" width="1200" height="900" viewBox="0 0 1200 900" role="img" aria-labelledby="title-mis-mas desc-mis-mas" data-slug="mis-mas" data-glass="wine" data-ice="standard" data-foam="false" data-bubbles="true" data-rim="none">
  <title id="title-mis-mas">米什·马什程序化示意图</title>
  <desc id="desc-mis-mas">深色酒吧台面光影中的米什·马什，wine杯型，standard冰型与none装饰。</desc>
  <defs>
    <linearGradient id="bg" x1="0" y1="0" x2="1" y2="1"><stop stop-color="#0b0d0f"/><stop offset=".52" stop-color="#27201d"/><stop offset="1" stop-color="#0b0c10"/></linearGradient>
    <linearGradient id="drink" x1="0" y1="0" x2="1" y2="1"><stop stop-color="#a54835" stop-opacity=".96"/><stop offset=".55" stop-color="#7e302d" stop-opacity=".84"/><stop offset="1" stop-color="#1e2521" stop-opacity=".96"/></linearGradient>
    <radialGradient id="light" cx="0.16" cy="0.12" r=".78"><stop stop-color="#d79754" stop-opacity=".62"/><stop offset="1" stop-color="#d79754" stop-opacity="0"/></radialGradient>
    <linearGradient id="edgeLight" x1="0" y1="0" x2="1" y2="0"><stop stop-color="#f8dfb8" stop-opacity=".05"/><stop offset=".5" stop-color="#f8dfb8" stop-opacity=".65"/><stop offset="1" stop-color="#f8dfb8" stop-opacity=".05"/></linearGradient>
    <filter id="blur"><feGaussianBlur stdDeviation="23"/></filter>
    <clipPath id="liquid-clip"><path d="M425 215 Q600 330 775 215 L742 520 Q725 625 600 650 Q475 625 458 520 Z"/></clipPath>
  </defs>
  <rect width="1200" height="900" fill="url(#bg)"/>
  <ellipse cx="165" cy="110" rx="450" ry="360" fill="url(#light)" filter="url(#blur)"/>
  <g><circle cx="121.6" cy="569.8" r="28" fill="#d79754" opacity="0.08"/><circle cx="1045.6" cy="74.2" r="30" fill="#d79754" opacity="0.18"/><circle cx="1054.4" cy="154.0" r="34" fill="#d79754" opacity="0.07"/><circle cx="623.2" cy="101.5" r="19" fill="#d79754" opacity="0.11"/><circle cx="1155.6" cy="403.9" r="12" fill="#d79754" opacity="0.09"/><circle cx="1124.8" cy="164.5" r="22" fill="#d79754" opacity="0.13"/><circle cx="1019.2" cy="437.5" r="10" fill="#d79754" opacity="0.07"/><circle cx="1116.0" cy="101.5" r="21" fill="#d79754" opacity="0.15"/><circle cx="1164.4" cy="441.7" r="34" fill="#d79754" opacity="0.12"/><circle cx="174.4" cy="435.4" r="31" fill="#d79754" opacity="0.09"/><circle cx="1058.8" cy="193.9" r="25" fill="#d79754" opacity="0.12"/><circle cx="882.8" cy="464.8" r="35" fill="#d79754" opacity="0.13"/></g>
  <path d="M0 745 Q250 670 510 744 T1200 715 V900 H0 Z" fill="#08090a" opacity=".9"/>
  <path d="M80 770 Q390 730 600 760 T1120 750" fill="none" stroke="url(#edgeLight)" stroke-width="3" opacity=".6"/>
  <ellipse cx="600" cy="735" rx="315" ry="31" fill="#000" opacity=".56"/>
  <g clip-path="url(#liquid-clip)"><rect x="300" y="230" width="600" height="390" fill="url(#drink)" opacity="0.64"/><g fill="#f5e5c7" opacity=".38"><rect x="485" y="272" width="72" height="62" rx="10" transform="rotate(-12 521 303)"/><rect x="598" y="260" width="76" height="64" rx="10" transform="rotate(15 636 292)"/><rect x="550" y="345" width="78" height="60" rx="10" transform="rotate(-5 589 375)"/></g><g fill="#f7e9cc" opacity=".55"><circle cx="719" cy="457" r="4"/><circle cx="629" cy="351" r="6"/><circle cx="712" cy="439" r="2"/><circle cx="515" cy="315" r="6"/><circle cx="688" cy="383" r="4"/><circle cx="645" cy="443" r="6"/><circle cx="710" cy="386" r="4"/><circle cx="485" cy="492" r="4"/><circle cx="471" cy="399" r="5"/><circle cx="647" cy="443" r="6"/><circle cx="496" cy="380" r="5"/><circle cx="644" cy="398" r="6"/><circle cx="697" cy="425" r="4"/><circle cx="529" cy="355" r="2"/></g></g>
  <path d="M425 215 Q600 330 775 215 L742 520 Q725 625 600 650 Q475 625 458 520 Z" fill="none" stroke="#f5d9ae" stroke-width="6" opacity=".9"/>
  <path d="M600 650 L600 745 M470 765 Q600 735 730 765" fill="none" stroke="#f5d9ae" stroke-width="6" opacity=".9" stroke-linecap="round"/>





</svg>
