<svg xmlns="http://www.w3.org/2000/svg" width="1200" height="900" viewBox="0 0 1200 900" role="img" aria-labelledby="title-molasses-energy-balances desc-molasses-energy-balances" data-slug="molasses-energy-balances" data-glass="highball" data-ice="standard" data-foam="false" data-bubbles="false" data-rim="none">
  <title id="title-molasses-energy-balances">糖蜜能量平衡程序化示意图</title>
  <desc id="desc-molasses-energy-balances">深色酒吧台面光影中的糖蜜能量平衡，highball杯型，standard冰型与citrus+cherry装饰。</desc>
  <defs>
    <linearGradient id="bg" x1="0" y1="0" x2="1" y2="1"><stop stop-color="#0b0d0f"/><stop offset=".52" stop-color="#27201d"/><stop offset="1" stop-color="#0b0c10"/></linearGradient>
    <linearGradient id="drink" x1="0" y1="0" x2="1" y2="1"><stop stop-color="#497453" stop-opacity=".96"/><stop offset=".55" stop-color="#a8b86c" stop-opacity=".84"/><stop offset="1" stop-color="#272036" stop-opacity=".96"/></linearGradient>
    <radialGradient id="light" cx="0.16" cy="0.12" r=".78"><stop stop-color="#c59ba9" stop-opacity=".62"/><stop offset="1" stop-color="#c59ba9" stop-opacity="0"/></radialGradient>
    <linearGradient id="edgeLight" x1="0" y1="0" x2="1" y2="0"><stop stop-color="#f8dfb8" stop-opacity=".05"/><stop offset=".5" stop-color="#f8dfb8" stop-opacity=".65"/><stop offset="1" stop-color="#f8dfb8" stop-opacity=".05"/></linearGradient>
    <filter id="blur"><feGaussianBlur stdDeviation="23"/></filter>
    <clipPath id="liquid-clip"><path d="M455 235 L745 235 L725 710 Q600 765 475 710 Z"/></clipPath>
  </defs>
  <rect width="1200" height="900" fill="url(#bg)"/>
  <ellipse cx="165" cy="110" rx="450" ry="360" fill="url(#light)" filter="url(#blur)"/>
  <g><circle cx="935.6" cy="326.2" r="13" fill="#c59ba9" opacity="0.06"/><circle cx="830.0" cy="599.2" r="28" fill="#c59ba9" opacity="0.08"/><circle cx="297.6" cy="280.0" r="40" fill="#c59ba9" opacity="0.08"/><circle cx="350.4" cy="162.4" r="10" fill="#c59ba9" opacity="0.15"/><circle cx="966.4" cy="559.3" r="18" fill="#c59ba9" opacity="0.10"/><circle cx="702.4" cy="137.2" r="19" fill="#c59ba9" opacity="0.18"/><circle cx="108.4" cy="448.0" r="9" fill="#c59ba9" opacity="0.07"/><circle cx="363.6" cy="248.5" r="31" fill="#c59ba9" opacity="0.16"/><circle cx="460.4" cy="443.8" r="41" fill="#c59ba9" opacity="0.06"/><circle cx="205.2" cy="128.8" r="9" fill="#c59ba9" opacity="0.18"/><circle cx="962.0" cy="506.8" r="10" fill="#c59ba9" opacity="0.17"/><circle cx="68.8" cy="151.9" r="28" fill="#c59ba9" opacity="0.10"/></g>
  <path d="M0 745 Q250 670 510 744 T1200 715 V900 H0 Z" fill="#08090a" opacity=".9"/>
  <path d="M80 770 Q390 730 600 760 T1120 750" fill="none" stroke="url(#edgeLight)" stroke-width="3" opacity=".6"/>
  <ellipse cx="600" cy="735" rx="315" ry="31" fill="#000" opacity=".56"/>
  <g clip-path="url(#liquid-clip)"><rect x="300" y="245" width="600" height="480" fill="url(#drink)" opacity="0.84"/><g fill="#f5e5c7" opacity=".38"><rect x="485" y="287" width="72" height="62" rx="10" transform="rotate(-12 521 318)"/><rect x="598" y="275" width="76" height="64" rx="10" transform="rotate(15 636 307)"/><rect x="550" y="360" width="78" height="60" rx="10" transform="rotate(-5 589 390)"/></g></g>
  <path d="M455 235 L745 235 L725 710 Q600 765 475 710 Z" fill="none" stroke="#f5d9ae" stroke-width="6" opacity=".9"/>





  <path d="M730 292 Q815 205 875 290" fill="none" stroke="#e9b64e" stroke-width="17" stroke-linecap="round"/><path d="M742 292 Q810 225 865 290" fill="none" stroke="#6f8e4f" stroke-width="4"/><circle cx="820" cy="258" r="28" fill="none" stroke="#efcc69" stroke-width="7" opacity=".78"/><circle cx="784" cy="258" r="25" fill="#a94348"/><circle cx="830" cy="270" r="22" fill="#c65353"/><path d="M784 242 Q780 175 830 168 M830 250 Q825 204 850 185" fill="none" stroke="#729152" stroke-width="6"/>
</svg>
