<svg xmlns="http://www.w3.org/2000/svg" viewBox="0 0 1200 900" role="img" aria-labelledby="title desc" data-slug="old-pal">
  <title id="title">老友程序化示意图</title>
  <desc id="desc">深色酒吧背景中的老友酒杯、冰块与装饰。</desc>
  <defs>
    <linearGradient id="bg" x1="0" y1="0" x2="1" y2="1"><stop stop-color="#111214"/><stop offset=".55" stop-color="#24201e"/><stop offset="1" stop-color="#0e1012"/></linearGradient>
    <linearGradient id="drink" x1="0" y1="0" x2="1" y2="1"><stop stop-color="#d3bd6b" stop-opacity=".86"/><stop offset="1" stop-color="#211a18" stop-opacity=".94"/></linearGradient>
    <radialGradient id="light" cx="0.16" cy="0.16" r="0.74"><stop stop-color="#d5a4c2" stop-opacity=".58"/><stop offset="1" stop-color="#d5a4c2" stop-opacity="0"/></radialGradient>
    <filter id="blur"><feGaussianBlur stdDeviation="22"/></filter>
  </defs>
  <rect width="1200" height="900" fill="url(#bg)"/>
  <ellipse cx="190" cy="120" rx="430" ry="350" fill="url(#light)" filter="url(#blur)"/>
  <g><circle cx="904.8" cy="198.1" r="20" fill="#d5a4c2" opacity="0.19"/><circle cx="1144.2" cy="501.7" r="38" fill="#d5a4c2" opacity="0.16"/><circle cx="337.8" cy="522.4" r="31" fill="#d5a4c2" opacity="0.12"/><circle cx="938.4" cy="458.0" r="17" fill="#d5a4c2" opacity="0.16"/><circle cx="123.6" cy="384.4" r="22" fill="#d5a4c2" opacity="0.16"/><circle cx="144.6" cy="577.6" r="26" fill="#d5a4c2" opacity="0.14"/><circle cx="413.4" cy="573.0" r="19" fill="#d5a4c2" opacity="0.14"/><circle cx="258.0" cy="407.4" r="25" fill="#d5a4c2" opacity="0.10"/></g>
  <path d="M0 755 Q260 685 520 748 T1200 720 V900 H0 Z" fill="#090a0b" opacity=".86"/>
  <ellipse cx="600" cy="720" rx="300" ry="28" fill="#000" opacity=".55"/>
  <path d="M425 310 L775 310 L745 600 Q600 690 455 600 Z" fill="url(#drink)" stroke="#f5d6ad" stroke-width="6" opacity=".96"/>
  <g fill="#f3dfc0" opacity=".52"><rect x="500" y="408" width="70" height="55" rx="9" transform="rotate(-12 535 435)"/><rect x="600" y="398" width="70" height="55" rx="9" transform="rotate(17 635 425)"/><rect x="555" y="470" width="70" height="55" rx="9" transform="rotate(-4 590 497)"/></g>
  <path d="M735 300 Q805 225 850 300" fill="none" stroke="#e9b64e" stroke-width="16" stroke-linecap="round"/><path d="M740 300 Q804 240 844 300" fill="none" stroke="#6f8e4f" stroke-width="4"/>
  <path d="M365 255 Q600 205 835 255" fill="none" stroke="#f7dfba" stroke-width="3" opacity=".36"/>
</svg>
