<svg xmlns="http://www.w3.org/2000/svg" width="1200" height="900" viewBox="0 0 1200 900" role="img" aria-labelledby="title-prado desc-prado" data-slug="prado" data-glass="coupe" data-ice="up" data-foam="true" data-bubbles="false" data-rim="none">
  <title id="title-prado">普拉多程序化示意图</title>
  <desc id="desc-prado">深色酒吧台面光影中的普拉多，coupe杯型，up冰型与citrus+cherry+mint装饰。</desc>
  <defs>
    <linearGradient id="bg" x1="0" y1="0" x2="1" y2="1"><stop stop-color="#0b0d0f"/><stop offset=".52" stop-color="#27201d"/><stop offset="1" stop-color="#0b0c10"/></linearGradient>
    <linearGradient id="drink" x1="0" y1="0" x2="1" y2="1"><stop stop-color="#d18d2b" stop-opacity=".96"/><stop offset=".55" stop-color="#d18d2b" stop-opacity=".84"/><stop offset="1" stop-color="#272036" stop-opacity=".96"/></linearGradient>
    <radialGradient id="light" cx="0.16" cy="0.12" r=".78"><stop stop-color="#c59ba9" stop-opacity=".62"/><stop offset="1" stop-color="#c59ba9" stop-opacity="0"/></radialGradient>
    <linearGradient id="edgeLight" x1="0" y1="0" x2="1" y2="0"><stop stop-color="#f8dfb8" stop-opacity=".05"/><stop offset=".5" stop-color="#f8dfb8" stop-opacity=".65"/><stop offset="1" stop-color="#f8dfb8" stop-opacity=".05"/></linearGradient>
    <filter id="blur"><feGaussianBlur stdDeviation="23"/></filter>
    <clipPath id="liquid-clip"><path d="M390 250 Q600 340 810 250 L760 430 Q600 520 440 430 Z"/></clipPath>
  </defs>
  <rect width="1200" height="900" fill="url(#bg)"/>
  <ellipse cx="165" cy="110" rx="450" ry="360" fill="url(#light)" filter="url(#blur)"/>
  <g><circle cx="86.4" cy="286.3" r="18" fill="#c59ba9" opacity="0.17"/><circle cx="552.8" cy="93.1" r="11" fill="#c59ba9" opacity="0.15"/><circle cx="970.8" cy="588.7" r="21" fill="#c59ba9" opacity="0.09"/><circle cx="566.0" cy="193.9" r="18" fill="#c59ba9" opacity="0.14"/><circle cx="852.0" cy="233.8" r="33" fill="#c59ba9" opacity="0.10"/><circle cx="1067.6" cy="254.8" r="41" fill="#c59ba9" opacity="0.07"/><circle cx="654.0" cy="307.3" r="27" fill="#c59ba9" opacity="0.09"/><circle cx="143.6" cy="193.9" r="29" fill="#c59ba9" opacity="0.08"/><circle cx="900.4" cy="603.4" r="31" fill="#c59ba9" opacity="0.11"/><circle cx="1058.8" cy="198.1" r="24" fill="#c59ba9" opacity="0.12"/><circle cx="1028.0" cy="494.2" r="35" fill="#c59ba9" opacity="0.10"/><circle cx="777.2" cy="196.0" r="30" fill="#c59ba9" opacity="0.09"/></g>
  <path d="M0 745 Q250 670 510 744 T1200 715 V900 H0 Z" fill="#08090a" opacity=".9"/>
  <path d="M80 770 Q390 730 600 760 T1120 750" fill="none" stroke="url(#edgeLight)" stroke-width="3" opacity=".6"/>
  <ellipse cx="600" cy="735" rx="315" ry="31" fill="#000" opacity=".56"/>
  <g clip-path="url(#liquid-clip)"><rect x="300" y="270" width="600" height="230" fill="url(#drink)" opacity="0.84"/><path d="M430 278 Q600 242 770 278 Q600 340 430 278 Z" fill="#f5e8ce" opacity=".72"/><path d="M485 278 Q600 260 715 278" fill="none" stroke="#fff6df" stroke-width="8" opacity=".45"/></g>
  <path d="M390 250 Q600 340 810 250 L760 430 Q600 520 440 430 Z" fill="none" stroke="#f5d9ae" stroke-width="6" opacity=".9"/>
  <path d="M600 430 L600 650 M480 665 Q600 640 720 665" fill="none" stroke="#f5d9ae" stroke-width="6" opacity=".9" stroke-linecap="round"/>




  <path d="M730 292 Q815 205 875 290" fill="none" stroke="#e9b64e" stroke-width="17" stroke-linecap="round"/><path d="M742 292 Q810 225 865 290" fill="none" stroke="#6f8e4f" stroke-width="4"/><circle cx="820" cy="258" r="28" fill="none" stroke="#efcc69" stroke-width="7" opacity=".78"/><circle cx="784" cy="258" r="25" fill="#a94348"/><circle cx="830" cy="270" r="22" fill="#c65353"/><path d="M784 242 Q780 175 830 168 M830 250 Q825 204 850 185" fill="none" stroke="#729152" stroke-width="6"/><path d="M740 300 Q795 200 860 245" fill="none" stroke="#709852" stroke-width="8"/><ellipse cx="775" cy="250" rx="18" ry="37" fill="#8eb56a" transform="rotate(30 775 250)"/><ellipse cx="820" cy="228" rx="17" ry="34" fill="#6d9d58" transform="rotate(55 820 228)"/><ellipse cx="840" cy="280" rx="15" ry="31" fill="#a7c875" transform="rotate(80 840 280)"/>
</svg>
