<svg xmlns="http://www.w3.org/2000/svg" width="1200" height="900" viewBox="0 0 1200 900" role="img" aria-labelledby="title-tea-time desc-tea-time" data-slug="tea-time" data-glass="highball" data-ice="standard" data-foam="false" data-bubbles="true" data-rim="none">
  <title id="title-tea-time">茶时光程序化示意图</title>
  <desc id="desc-tea-time">深色酒吧台面光影中的茶时光，highball杯型，standard冰型与mint装饰。</desc>
  <defs>
    <linearGradient id="bg" x1="0" y1="0" x2="1" y2="1"><stop stop-color="#0b0d0f"/><stop offset=".52" stop-color="#27201d"/><stop offset="1" stop-color="#0b0c10"/></linearGradient>
    <linearGradient id="drink" x1="0" y1="0" x2="1" y2="1"><stop stop-color="#7e302d" stop-opacity=".96"/><stop offset=".55" stop-color="#bf6a43" stop-opacity=".84"/><stop offset="1" stop-color="#272036" stop-opacity=".96"/></linearGradient>
    <radialGradient id="light" cx="0.16" cy="0.12" r=".78"><stop stop-color="#c46c58" stop-opacity=".62"/><stop offset="1" stop-color="#c46c58" stop-opacity="0"/></radialGradient>
    <linearGradient id="edgeLight" x1="0" y1="0" x2="1" y2="0"><stop stop-color="#f8dfb8" stop-opacity=".05"/><stop offset=".5" stop-color="#f8dfb8" stop-opacity=".65"/><stop offset="1" stop-color="#f8dfb8" stop-opacity=".05"/></linearGradient>
    <filter id="blur"><feGaussianBlur stdDeviation="23"/></filter>
    <clipPath id="liquid-clip"><path d="M455 235 L745 235 L725 710 Q600 765 475 710 Z"/></clipPath>
  </defs>
  <rect width="1200" height="900" fill="url(#bg)"/>
  <ellipse cx="165" cy="110" rx="450" ry="360" fill="url(#light)" filter="url(#blur)"/>
  <g><circle cx="64.4" cy="120.4" r="41" fill="#c46c58" opacity="0.16"/><circle cx="654.0" cy="326.2" r="31" fill="#c46c58" opacity="0.10"/><circle cx="759.6" cy="578.2" r="10" fill="#c46c58" opacity="0.14"/><circle cx="218.4" cy="233.8" r="37" fill="#c46c58" opacity="0.16"/><circle cx="1085.2" cy="385.0" r="39" fill="#c46c58" opacity="0.09"/><circle cx="495.6" cy="193.9" r="21" fill="#c46c58" opacity="0.16"/><circle cx="865.2" cy="326.2" r="33" fill="#c46c58" opacity="0.11"/><circle cx="768.4" cy="109.9" r="37" fill="#c46c58" opacity="0.12"/><circle cx="337.2" cy="582.4" r="40" fill="#c46c58" opacity="0.15"/><circle cx="350.4" cy="147.7" r="22" fill="#c46c58" opacity="0.18"/><circle cx="420.8" cy="154.0" r="15" fill="#c46c58" opacity="0.11"/><circle cx="689.2" cy="580.3" r="36" fill="#c46c58" opacity="0.13"/></g>
  <path d="M0 745 Q250 670 510 744 T1200 715 V900 H0 Z" fill="#08090a" opacity=".9"/>
  <path d="M80 770 Q390 730 600 760 T1120 750" fill="none" stroke="url(#edgeLight)" stroke-width="3" opacity=".6"/>
  <ellipse cx="600" cy="735" rx="315" ry="31" fill="#000" opacity=".56"/>
  <g clip-path="url(#liquid-clip)"><rect x="300" y="245" width="600" height="480" fill="url(#drink)" opacity="0.48"/><g fill="#f5e5c7" opacity=".38"><rect x="485" y="287" width="72" height="62" rx="10" transform="rotate(-12 521 318)"/><rect x="598" y="275" width="76" height="64" rx="10" transform="rotate(15 636 307)"/><rect x="550" y="360" width="78" height="60" rx="10" transform="rotate(-5 589 390)"/></g><g fill="#f7e9cc" opacity=".55"><circle cx="703" cy="337" r="5"/><circle cx="620" cy="506" r="3"/><circle cx="569" cy="392" r="5"/><circle cx="529" cy="365" r="2"/><circle cx="653" cy="444" r="6"/><circle cx="592" cy="427" r="3"/><circle cx="631" cy="418" r="6"/><circle cx="489" cy="515" r="5"/><circle cx="533" cy="279" r="6"/><circle cx="714" cy="354" r="2"/><circle cx="536" cy="526" r="6"/><circle cx="507" cy="456" r="5"/><circle cx="552" cy="362" r="3"/><circle cx="510" cy="392" r="4"/></g></g>
  <path d="M455 235 L745 235 L725 710 Q600 765 475 710 Z" fill="none" stroke="#f5d9ae" stroke-width="6" opacity=".9"/>





  <path d="M740 300 Q795 200 860 245" fill="none" stroke="#709852" stroke-width="8"/><ellipse cx="775" cy="250" rx="18" ry="37" fill="#8eb56a" transform="rotate(30 775 250)"/><ellipse cx="820" cy="228" rx="17" ry="34" fill="#6d9d58" transform="rotate(55 820 228)"/><ellipse cx="840" cy="280" rx="15" ry="31" fill="#a7c875" transform="rotate(80 840 280)"/>
</svg>
