<svg xmlns="http://www.w3.org/2000/svg" width="1200" height="900" viewBox="0 0 1200 900" role="img" aria-labelledby="title-the-mean-fiddler desc-the-mean-fiddler" data-slug="the-mean-fiddler" data-glass="martini" data-ice="up" data-foam="false" data-bubbles="false" data-rim="none">
  <title id="title-the-mean-fiddler">刻薄提琴手程序化示意图</title>
  <desc id="desc-the-mean-fiddler">深色酒吧台面光影中的刻薄提琴手，martini杯型，up冰型与citrus+cherry装饰。</desc>
  <defs>
    <linearGradient id="bg" x1="0" y1="0" x2="1" y2="1"><stop stop-color="#0b0d0f"/><stop offset=".52" stop-color="#27201d"/><stop offset="1" stop-color="#0b0c10"/></linearGradient>
    <linearGradient id="drink" x1="0" y1="0" x2="1" y2="1"><stop stop-color="#497453" stop-opacity=".96"/><stop offset=".55" stop-color="#497453" stop-opacity=".84"/><stop offset="1" stop-color="#1e2521" stop-opacity=".96"/></linearGradient>
    <radialGradient id="light" cx="0.16" cy="0.12" r=".78"><stop stop-color="#c46c58" stop-opacity=".62"/><stop offset="1" stop-color="#c46c58" stop-opacity="0"/></radialGradient>
    <linearGradient id="edgeLight" x1="0" y1="0" x2="1" y2="0"><stop stop-color="#f8dfb8" stop-opacity=".05"/><stop offset=".5" stop-color="#f8dfb8" stop-opacity=".65"/><stop offset="1" stop-color="#f8dfb8" stop-opacity=".05"/></linearGradient>
    <filter id="blur"><feGaussianBlur stdDeviation="23"/></filter>
    <clipPath id="liquid-clip"><path d="M390 250 L810 250 L600 505 Z"/></clipPath>
  </defs>
  <rect width="1200" height="900" fill="url(#bg)"/>
  <ellipse cx="165" cy="110" rx="450" ry="360" fill="url(#light)" filter="url(#blur)"/>
  <g><circle cx="803.6" cy="393.4" r="12" fill="#c46c58" opacity="0.18"/><circle cx="825.6" cy="565.6" r="31" fill="#c46c58" opacity="0.10"/><circle cx="759.6" cy="578.2" r="13" fill="#c46c58" opacity="0.18"/><circle cx="231.6" cy="330.4" r="39" fill="#c46c58" opacity="0.19"/><circle cx="944.4" cy="391.3" r="26" fill="#c46c58" opacity="0.12"/><circle cx="737.6" cy="406.0" r="22" fill="#c46c58" opacity="0.15"/><circle cx="121.6" cy="559.3" r="23" fill="#c46c58" opacity="0.13"/><circle cx="724.4" cy="319.9" r="23" fill="#c46c58" opacity="0.11"/><circle cx="574.8" cy="256.9" r="21" fill="#c46c58" opacity="0.14"/><circle cx="715.6" cy="263.2" r="8" fill="#c46c58" opacity="0.07"/><circle cx="957.6" cy="483.7" r="29" fill="#c46c58" opacity="0.06"/><circle cx="451.6" cy="393.4" r="11" fill="#c46c58" opacity="0.06"/></g>
  <path d="M0 745 Q250 670 510 744 T1200 715 V900 H0 Z" fill="#08090a" opacity=".9"/>
  <path d="M80 770 Q390 730 600 760 T1120 750" fill="none" stroke="url(#edgeLight)" stroke-width="3" opacity=".6"/>
  <ellipse cx="600" cy="735" rx="315" ry="31" fill="#000" opacity=".56"/>
  <g clip-path="url(#liquid-clip)"><rect x="300" y="260" width="600" height="90" fill="#1e2521" opacity="0.84"/><rect x="300" y="345" width="600" height="85" fill="#497453" opacity="0.84"/><rect x="300" y="428" width="600" height="90" fill="#497453" opacity="0.84"/></g>
  <path d="M390 250 L810 250 L600 505 Z" fill="none" stroke="#f5d9ae" stroke-width="6" opacity=".9"/>
  <path d="M600 505 L600 650 M480 665 Q600 640 720 665" fill="none" stroke="#f5d9ae" stroke-width="6" opacity=".9" stroke-linecap="round"/>




  <path d="M730 292 Q815 205 875 290" fill="none" stroke="#e9b64e" stroke-width="17" stroke-linecap="round"/><path d="M742 292 Q810 225 865 290" fill="none" stroke="#6f8e4f" stroke-width="4"/><circle cx="820" cy="258" r="28" fill="none" stroke="#efcc69" stroke-width="7" opacity=".78"/><circle cx="784" cy="258" r="25" fill="#a94348"/><circle cx="830" cy="270" r="22" fill="#c65353"/><path d="M784 242 Q780 175 830 168 M830 250 Q825 204 850 185" fill="none" stroke="#729152" stroke-width="6"/>
</svg>
